# xmcd
#
# Track frame offsets: 
#        150
#        12934
#        26733
#        37259
#        49544
#        61007
#        74224
#        84175
#        97079
#        108395
#        122475
#        135145
#        146794
#        157477
#        168213
#        179646
#        192214
#        201700
#        212291
#        222575
#        235151
#        243180
#        255567
#        266957
#        277915
#        289246
#        301595
#        312170
#
# Disc length: 4336 seconds
#
# Revision: 0
# Processed by: cddbd v1.5.1PL0 Copyright (c) Steve Scherf et al.
# Submitted via: ExactAudioCopy v0.95b3
#
DISCID=a310ee1c
DTITLE=Baby Washington - I've Got A Feeling - The Best Of
DYEAR=2005
DGENRE=Soul
TTITLE0=The Ballad Of Bobby Dawn
TTITLE1=There He Is
TTITLE2=Leave Me Alone
TTITLE3=That's How Heartaches Are Made
TTITLE4=Careless Hands
TTITLE5=Standing On The Pier
TTITLE6=Hush Heart
TTITLE7=I've Got A Feeling
TTITLE8=You And The Night And The Music
TTITLE9=It'll Never Be Over For Me
TTITLE10=Only Those In Love
TTITLE11=I Can't Wait Until I See My Baby Again
TTITLE12=A Handful Of Memories
TTITLE13=No Time For Pity
TTITLE14=I'm On The Outside (Looking In)
TTITLE15=Take Me Like I Am
TTITLE16=All Around The World
TTITLE17=I Got It Bad And That Ain't Good
TTITLE18=People Sure Act Funny
TTITLE19=I'm Calling You Baby
TTITLE20=Get A Hold Of Yourself
TTITLE21=This Old World
TTITLE22=At Last
TTITLE23=It's A Hang Up Baby
TTITLE24=Hurt So Bad
TTITLE25=Think About The Good Times
TTITLE26=It's All Over But The Crying
TTITLE27=Hold Back The Dawn
EXTD=
EXTT0=
EXTT1=
EXTT2=
EXTT3=
EXTT4=
EXTT5=
EXTT6=
EXTT7=
EXTT8=
EXTT9=
EXTT10=
EXTT11=
EXTT12=
EXTT13=
EXTT14=
EXTT15=
EXTT16=
EXTT17=
EXTT18=
EXTT19=
EXTT20=
EXTT21=
EXTT22=
EXTT23=
EXTT24=
EXTT25=
EXTT26=
EXTT27=
PLAYORDER=
